<svg xmlns="http://www.w3.org/2000/svg" viewBox="0 0 700 730" role="img" aria-label="Map of Africa">
  <title>Africa</title>
  <!-- Page background -->
  <rect width="700" height="730" fill="#f8fafc"/>
  <!-- Realistic map image — SVG paths above are transparent overlays for hit detection -->
  <image href="/maps/africa-map.jpg" x="0" y="0" width="700" height="730" preserveAspectRatio="xMidYMid meet"/>

  <!-- x = (lon + 18) * 10 ,  y = (37 - lat) * 10 -->

  <!-- ═══ NORTH AFRICA ════════════════════════════════════════════════════ -->
  <!-- Morocco -->
  <path id="MA" d="M 120,10 L 160,10 L 165,20 L 163,30 L 150,90 L 45,90 L 40,60 L 70,20 Z"/>
  <!-- Western Sahara -->
  <path id="EH" d="M 10,90 L 45,90 L 150,90 L 93,157 L 10,160 Z"/>
  <!-- Algeria -->
  <path id="DZ" d="M 160,10 L 265,0 L 270,40 L 275,110 L 300,172 L 210,180 L 130,180 L 93,157 L 150,90 Z"/>
  <!-- Tunisia -->
  <path id="TN" d="M 265,0 L 290,0 L 295,20 L 282,38 L 270,40 Z"/>
  <!-- Libya -->
  <path id="LY" d="M 270,40 L 300,40 L 322,68 L 382,40 L 430,40 L 430,150 L 412,170 L 300,172 L 270,140 Z"/>
  <!-- Egypt -->
  <path id="EG" d="M 430,60 L 510,60 L 528,75 L 505,150 L 430,150 Z"/>

  <!-- ═══ WEST AFRICA ══════════════════════════════════════════════════════ -->
  <!-- Mauritania -->
  <path id="MR" d="M 10,160 L 93,157 L 130,120 L 135,220 L 10,210 Z"/>
  <!-- Senegal -->
  <path id="SN" d="M 10,210 L 55,210 L 62,248 L 10,250 Z"/>
  <!-- Gambia (thin strip) -->
  <path id="GM" d="M 10,228 L 43,228 L 43,235 L 10,235 Z"/>
  <!-- Guinea-Bissau -->
  <path id="GW" d="M 18,250 L 42,250 L 42,262 L 18,262 Z"/>
  <!-- Guinea -->
  <path id="GN" d="M 28,248 L 82,243 L 92,282 L 38,290 Z"/>
  <!-- Sierra Leone -->
  <path id="SL" d="M 50,270 L 74,270 L 76,300 L 50,300 Z"/>
  <!-- Liberia -->
  <path id="LR" d="M 70,292 L 106,290 L 104,326 L 73,326 Z"/>
  <!-- Ivory Coast -->
  <path id="CI" d="M 100,260 L 156,258 L 156,326 L 104,326 Z"/>
  <!-- Ghana -->
  <path id="GH" d="M 150,258 L 192,258 L 192,326 L 156,326 Z"/>
  <!-- Togo -->
  <path id="TG" d="M 178,258 L 196,258 L 196,312 L 178,312 Z"/>
  <!-- Benin -->
  <path id="BJ" d="M 194,245 L 218,245 L 218,312 L 194,312 Z"/>
  <!-- Nigeria -->
  <path id="NG" d="M 210,230 L 332,230 L 322,282 L 320,326 L 228,326 L 210,300 Z"/>

  <!-- ═══ SAHEL ═════════════════════════════════════════════════════════════ -->
  <!-- Mali -->
  <path id="ML" d="M 130,120 L 225,128 L 228,220 L 218,250 L 150,270 L 130,220 Z"/>
  <!-- Burkina Faso -->
  <path id="BF" d="M 128,220 L 202,218 L 206,278 L 136,278 Z"/>
  <!-- Niger -->
  <path id="NE" d="M 207,134 L 336,134 L 336,234 L 218,246 L 210,220 Z"/>
  <!-- Chad -->
  <path id="TD" d="M 322,134 L 422,170 L 420,292 L 330,292 L 320,234 Z"/>

  <!-- ═══ HORN / EAST AFRICA NORTH ══════════════════════════════════════════ -->
  <!-- Sudan -->
  <path id="SD" d="M 420,150 L 550,150 L 552,202 L 550,252 L 520,282 L 420,272 Z"/>
  <!-- South Sudan -->
  <path id="SS" d="M 420,250 L 540,250 L 540,332 L 428,332 Z"/>
  <!-- Eritrea -->
  <path id="ER" d="M 550,190 L 612,188 L 612,252 L 558,252 Z"/>
  <!-- Ethiopia -->
  <path id="ET" d="M 510,222 L 558,190 L 612,188 L 612,252 L 622,292 L 610,332 L 530,332 L 520,292 Z"/>
  <!-- Djibouti -->
  <path id="DJ" d="M 600,250 L 622,250 L 622,262 L 600,262 Z"/>
  <!-- Somalia -->
  <path id="SO" d="M 600,250 L 692,250 L 692,272 L 632,352 L 602,392 L 590,392 L 590,332 Z"/>

  <!-- ═══ CENTRAL AFRICA ═════════════════════════════════════════════════════ -->
  <!-- Equatorial Guinea -->
  <path id="GQ" d="M 262,330 L 296,330 L 296,362 L 262,362 Z"/>
  <!-- Cameroon -->
  <path id="CM" d="M 260,238 L 332,238 L 342,292 L 342,352 L 270,352 L 260,330 Z"/>
  <!-- Central African Republic -->
  <path id="CF" d="M 322,260 L 452,260 L 452,332 L 322,332 Z"/>
  <!-- Gabon -->
  <path id="GA" d="M 260,350 L 322,342 L 322,412 L 268,412 Z"/>
  <!-- Republic of Congo -->
  <path id="CG" d="M 290,330 L 372,328 L 362,422 L 302,422 Z"/>
  <!-- DR Congo -->
  <path id="CD" d="M 302,320 L 492,320 L 490,472 L 462,492 L 312,502 L 310,422 Z"/>

  <!-- ═══ GREAT LAKES ════════════════════════════════════════════════════════ -->
  <!-- Uganda -->
  <path id="UG" d="M 472,320 L 532,320 L 532,382 L 472,382 Z"/>
  <!-- Kenya -->
  <path id="KE" d="M 520,320 L 592,320 L 592,382 L 568,422 L 520,412 Z"/>
  <!-- Rwanda -->
  <path id="RW" d="M 472,380 L 492,380 L 492,400 L 472,400 Z"/>
  <!-- Burundi -->
  <path id="BI" d="M 472,400 L 492,400 L 492,416 L 472,416 Z"/>
  <!-- Tanzania -->
  <path id="TZ" d="M 470,380 L 582,380 L 582,492 L 532,492 L 470,492 Z"/>
  <!-- Malawi -->
  <path id="MW" d="M 510,462 L 542,462 L 534,542 L 512,542 Z"/>

  <!-- ═══ SOUTHERN AFRICA ════════════════════════════════════════════════════ -->
  <!-- Angola -->
  <path id="AO" d="M 292,422 L 432,420 L 432,552 L 302,552 Z"/>
  <!-- Zambia -->
  <path id="ZM" d="M 400,452 L 522,452 L 522,552 L 400,552 Z"/>
  <!-- Mozambique -->
  <path id="MZ" d="M 520,472 L 582,472 L 552,632 L 502,632 L 502,552 Z"/>
  <!-- Zimbabwe -->
  <path id="ZW" d="M 430,522 L 512,520 L 512,602 L 440,602 Z"/>
  <!-- Botswana -->
  <path id="BW" d="M 382,552 L 472,550 L 472,642 L 382,642 Z"/>
  <!-- Namibia -->
  <path id="NA" d="M 292,542 L 382,540 L 382,662 L 292,662 Z"/>
  <!-- South Africa -->
  <path id="ZA" d="M 340,592 L 512,590 L 512,652 L 482,722 L 362,722 L 340,662 Z"/>
  <!-- Lesotho -->
  <path id="LS" d="M 450,660 L 472,660 L 472,680 L 450,680 Z"/>
  <!-- Eswatini -->
  <path id="SZ" d="M 490,628 L 506,628 L 506,648 L 490,648 Z"/>

  <!-- ═══ ISLANDS ════════════════════════════════════════════════════════════ -->
  <!-- Madagascar -->
  <path id="MG" d="M 618,500 L 678,512 L 678,552 L 660,632 L 622,630 L 622,552 Z"/>
</svg>
